<svg width="106" height="104" viewBox="0 0 106 104" fill="none" xmlns="http://www.w3.org/2000/svg">
<g filter="url(#filter0_d_0_665)">
<path d="M35 46.5C35 34.0736 45.0736 24 57.5 24C69.9264 24 80 34.0736 80 46.5C80 58.9264 69.9264 69 57.5 69C45.0736 69 35 58.9264 35 46.5Z" fill="#6C79DB"/>
</g>
<path fill-rule="evenodd" clip-rule="evenodd" d="M61.9656 40.339L66.4379 40.339C66.7502 40.339 67 40.0947 67 39.7893C67 39.4839 66.7502 39.2396 66.4379 39.2396L61.9656 39.2396C61.7033 37.9651 60.5499 37 59.1674 37C57.7849 37 56.6315 37.9651 56.3691 39.2396L47.5663 39.2396C47.254 39.2396 47.0042 39.4839 47.0042 39.7893C47.0042 40.0947 47.254 40.339 47.5663 40.339L56.3733 40.339C56.6356 41.6136 57.7891 42.5787 59.1716 42.5787C60.554 42.5787 61.7033 41.6136 61.9656 40.339ZM57.4393 39.7893C57.4393 38.8568 58.2138 38.0994 59.1674 38.0994C60.121 38.0994 60.8955 38.8568 60.8955 39.7893C60.8955 40.7218 60.121 41.4792 59.1674 41.4792C58.2138 41.4792 57.4393 40.7177 57.4393 39.7893ZM57.2519 47.0701L66.4379 47.0701C66.7502 47.0701 67 46.8258 67 46.5204C67 46.215 66.7502 45.9707 66.4379 45.9707L57.2519 45.9707C56.9896 44.6961 55.8361 43.731 54.4537 43.731C53.0712 43.731 51.9178 44.6961 51.6554 45.9707L47.5663 45.9707C47.254 45.9707 47.0042 46.215 47.0042 46.5204C47.0042 46.8258 47.254 47.0701 47.5663 47.0701L51.6554 47.0701C51.9178 48.3446 53.0712 49.3097 54.4537 49.3097C55.832 49.3097 56.9896 48.3487 57.2519 47.0701ZM52.7256 46.5204C52.7256 45.5879 53.5001 44.8305 54.4537 44.8305C55.4072 44.8305 56.1818 45.5879 56.1818 46.5204C56.1818 47.4529 55.4072 48.2103 54.4537 48.2103C53.5001 48.2103 52.7256 47.4529 52.7256 46.5204ZM66.4379 53.7604L61.9656 53.7604C61.7033 55.039 60.554 56 59.1716 56C57.7891 56 56.6356 55.0349 56.3733 53.7604L47.5621 53.7604C47.2498 53.7604 47 53.5161 47 53.2107C47 52.9053 47.2498 52.661 47.5621 52.661L56.3691 52.661C56.6315 51.3864 57.7849 50.4214 59.1674 50.4214C60.5499 50.4214 61.7033 51.3864 61.9656 52.661L66.4379 52.661C66.7502 52.661 67 52.9053 67 53.2107C67 53.5161 66.7502 53.7604 66.4379 53.7604ZM59.1674 51.5208C58.2138 51.5208 57.4393 52.2782 57.4393 53.2107C57.4393 54.1432 58.2138 54.9006 59.1674 54.9006C60.121 54.9006 60.8955 54.1432 60.8955 53.2107C60.8955 52.2782 60.121 51.5208 59.1674 51.5208Z" fill="white"/>
<defs>
<filter id="filter0_d_0_665" x="0" y="0" width="115" height="115" filterUnits="userSpaceOnUse" color-interpolation-filters="sRGB">
<feFlood flood-opacity="0" result="BackgroundImageFix"/>
<feColorMatrix in="SourceAlpha" type="matrix" values="0 0 0 0 0 0 0 0 0 0 0 0 0 0 0 0 0 0 127 0" result="hardAlpha"/>
<feOffset dy="11"/>
<feGaussianBlur stdDeviation="17.5"/>
<feColorMatrix type="matrix" values="0 0 0 0 0.17276 0 0 0 0 0.204742 0 0 0 0 0.445833 0 0 0 0.5 0"/>
<feBlend mode="normal" in2="BackgroundImageFix" result="effect1_dropShadow_0_665"/>
<feBlend mode="normal" in="SourceGraphic" in2="effect1_dropShadow_0_665" result="shape"/>
</filter>
</defs>
</svg>
